<svg width="30" height="34" viewBox="0 0 30 34" fill="none" xmlns="http://www.w3.org/2000/svg">
<path d="M14.9434 0.5C20.7089 0.5 25.4003 5.19146 25.4004 10.957C25.4004 13.1316 24.736 15.2205 23.4766 17.001L23.4707 17.0098L23.4639 17.0195L15.3613 29.6523H15.3604C15.1782 29.9371 14.7754 29.9554 14.5654 29.7061L14.5264 29.6523L6.45801 17.0625L6.44824 17.0488L6.21289 16.6953C5.07213 14.9222 4.48633 13.0454 4.48633 10.957C4.48637 5.09368 9.2402 0.500046 14.9434 0.5ZM14.9434 5.47656C11.9212 5.47661 9.46294 7.93484 9.46289 10.957C9.46289 13.9793 11.9211 16.4375 14.9434 16.4375C17.9656 16.4375 20.4238 13.9793 20.4238 10.957C20.4238 7.93481 17.9656 5.47656 14.9434 5.47656Z" fill="black" stroke="#0B0505"/>
<path d="M22.7286 22.8887L17.7129 30.7304C16.4146 32.7547 13.4612 32.748 12.1692 30.7324L7.14524 22.8907C2.72494 23.9127 0 25.7849 0 28.0222C0 31.9045 7.6984 33.9989 14.9415 33.9989C22.1846 33.9989 29.883 31.9045 29.883 28.0222C29.883 25.7833 27.1543 23.9101 22.7286 22.8887Z" fill="black"/>
</svg>
