<svg width="36" height="26" viewBox="0 0 36 26" fill="none" xmlns="http://www.w3.org/2000/svg">
<path d="M23.3271 14.1504L20.3119 17.1758C19.0892 18.4028 16.9379 18.4292 15.6887 17.1758L12.6734 14.1504L1.84375 25.0152C2.24687 25.2016 2.69133 25.3128 3.16385 25.3128H32.8368C33.3093 25.3128 33.7536 25.2017 34.1566 25.0153L23.3271 14.1504Z" fill="black"/>
<path d="M32.8367 0H3.1637C2.69119 0 2.24673 0.111239 1.84375 0.297644L13.416 11.9083C13.4168 11.9091 13.4177 11.9092 13.4185 11.91C13.4192 11.9107 13.4194 11.9118 13.4194 11.9118L17.1821 15.687C17.5818 16.0867 18.4187 16.0867 18.8184 15.687L22.5804 11.9124C22.5804 11.9124 22.5813 11.9107 22.5821 11.91C22.5821 11.91 22.5837 11.9091 22.5845 11.9083L34.1565 0.297574C33.7535 0.111098 33.3092 0 32.8367 0Z" fill="black"/>
<path d="M0.336528 1.77344C0.127973 2.19519 0 2.66335 0 3.16483V22.1499C0 22.6514 0.127833 23.1195 0.336458 23.5413L11.1849 12.6577L0.336528 1.77344Z" fill="black"/>
<path d="M35.6647 1.77344L24.8164 12.6579L35.6647 23.5416C35.8732 23.1198 36.0012 22.6517 36.0012 22.15V3.16497C36.0012 2.66335 35.8732 2.19519 35.6647 1.77344Z" fill="black"/>
</svg>
