<svg width="34" height="35" viewBox="0 0 34 35" fill="none" xmlns="http://www.w3.org/2000/svg">
<path d="M25.4937 22.9145C24.3982 21.833 23.0305 21.833 21.9419 22.9145C21.1116 23.7379 20.2812 24.5613 19.4648 25.3987C19.2415 25.6289 19.0531 25.6778 18.7809 25.5243C18.2436 25.2312 17.6715 24.994 17.1551 24.673C14.7477 23.1588 12.7311 21.2119 10.9447 19.0209C10.0585 17.9323 9.27004 16.767 8.71879 15.4551C8.60714 15.19 8.62807 15.0155 8.84439 14.7992C9.67476 13.9968 10.4842 13.1734 11.3006 12.35C12.438 11.2056 12.438 9.86583 11.2936 8.71448C10.6447 8.05855 9.99574 7.41658 9.3468 6.76066C8.67692 6.09078 8.01402 5.41392 7.33716 4.75102C6.24162 3.6834 4.87395 3.6834 3.7854 4.758C2.94805 5.58139 2.14559 6.42572 1.29428 7.23516C0.505778 7.98179 0.108036 8.8959 0.0243015 9.96352C-0.108279 11.701 0.317374 13.3408 0.917475 14.9388C2.14559 18.2463 4.01567 21.184 6.28349 23.8775C9.3468 27.52 13.0032 30.4018 17.2807 32.4813C19.2066 33.4163 21.2023 34.135 23.3724 34.2537C24.8657 34.3374 26.1636 33.9606 27.2033 32.7953C27.915 31.9998 28.7175 31.2741 29.4711 30.5135C30.5876 29.3831 30.5946 28.0154 29.4851 26.8989C28.1593 25.5661 26.8265 24.2403 25.4937 22.9145Z" fill="black"/>
<path d="M24.1598 17.3562L26.7346 16.9166C26.3299 14.5511 25.2134 12.4088 23.5178 10.7062C21.7245 8.91291 19.4566 7.78249 16.9586 7.43359L16.5957 10.0224C18.5286 10.2945 20.287 11.1668 21.6756 12.5554C22.9875 13.8672 23.8458 15.528 24.1598 17.3562Z" fill="black"/>
<path d="M28.1879 6.16124C25.2153 3.18865 21.4542 1.31159 17.3023 0.732422L16.9395 3.32123C20.5261 3.82364 23.7778 5.44949 26.3457 8.01039C28.781 10.4457 30.3789 13.5229 30.9581 16.9072L33.5329 16.4676C32.8561 12.546 31.0069 8.9873 28.1879 6.16124Z" fill="black"/>
</svg>
